<svg width="149" height="350" viewBox="0 0 149 350" fill="none" xmlns="http://www.w3.org/2000/svg">
<g opacity="0.03">
<path fill-rule="evenodd" clip-rule="evenodd" d="M146.986 0C180.381 0 212.804 11.2802 238.369 31.7651V31.7643C271.764 58.5072 291.406 96.532 293.782 138.808C296.057 180.546 280.464 221.383 251.018 250.838L153.407 347.205C149.626 350.954 143.068 350.92 139.286 347.172L43.0546 250.908C13.5418 221.385 -2.08482 180.515 0.224003 138.809C2.56598 96.5345 22.2415 58.5097 55.6023 31.7651C81.1336 11.2802 113.592 0 146.986 0ZM91.5669 157.908C91.5669 194.073 120.997 223.481 157.191 223.481C193.385 223.481 222.85 194.074 222.816 157.908C222.816 121.743 193.386 92.335 157.191 92.335C120.998 92.335 91.5669 121.742 91.5669 157.908Z" fill="white"/>
<path d="M157.191 125.946C139.546 125.946 125.216 140.266 125.216 157.897C125.216 175.528 139.546 189.848 157.191 189.848C174.837 189.848 189.167 175.528 189.167 157.897C189.167 140.266 174.837 125.946 157.191 125.946Z" fill="white"/>
</g>
</svg>
